<svg width="50" height="45" viewBox="0 0 50 45" fill="none" xmlns="http://www.w3.org/2000/svg">
<path d="M36.0757 32.9419C36.2384 32.9037 38.2306 32.9421 38.4702 33.4585C38.7033 34.1225 38.7425 34.8392 38.5844 35.5249C38.4308 35.7643 36.8709 36.8834 36.1528 37.7632C35.4347 38.6431 34.879 39.2746 34.3237 39.313C33.7684 39.3513 32.6863 38.6342 31.7671 38.481C30.8478 38.3279 29.3343 38.4804 28.4917 38.0786C28.1656 37.9538 27.8757 37.7504 27.6469 37.4869C27.4182 37.2233 27.2577 36.9079 27.1802 36.5679C27.2994 35.8064 27.6122 35.0877 28.0893 34.482C28.0893 34.482 28.1761 36.797 28.4155 36.8736C28.6548 36.95 29.047 36.9884 29.0473 36.7974C29.0473 36.6061 28.7313 33.9273 29.0473 33.8794C29.3633 33.8317 29.7268 33.9278 29.7651 34.0425C29.8033 34.1587 29.6889 37.0343 30.0044 37.0747C30.3202 37.113 30.6457 37.2275 30.646 37.0747V34.2046C30.646 34.2046 31.125 34.2051 31.2016 34.3199C31.2782 34.4353 31.2023 37.1889 31.5278 37.2749C31.8532 37.3609 32.1594 37.2754 32.1596 37.0747C32.0536 36.0452 32.0275 35.0086 32.0825 33.9751C32.2452 33.9751 33.0399 33.5357 33.0405 33.6978C33.0405 33.8604 33.0406 36.0035 33.2417 36.0035C33.443 36.0035 34.0362 36.0031 34.0366 35.7261C34.0366 35.4487 33.8355 33.6114 34.0366 33.4966C34.2386 33.3816 35.1556 33.0194 35.1948 33.1812C35.2331 33.3437 35.1184 34.7291 35.2807 34.731C35.4435 34.731 35.9135 34.731 35.9136 34.4536C35.9136 34.1763 35.913 32.9807 36.0757 32.9419ZM17.9204 34.6831C18.6099 34.3679 20.1509 34.8268 19.8354 36.1558C19.5194 37.4854 17.9771 37.1128 17.4887 36.6919C17.3369 36.551 17.224 36.3728 17.1616 36.1753C17.0993 35.9779 17.0899 35.7674 17.1333 35.565C17.1767 35.3626 17.2718 35.1746 17.4096 35.0201C17.5476 34.8655 17.724 34.7495 17.9204 34.6831ZM13.812 16.8247C14.5781 16.5378 17.8816 17.3031 19.0307 17.6665C20.1797 18.03 20.994 18.6994 20.8315 19.6939C20.2595 21.6685 19.5782 23.6107 18.7915 25.5103C17.9585 27.7867 17.9584 28.3035 16.7231 29.0591C15.4879 29.8148 14.5682 30.1011 14.2427 29.7759C13.5247 28.8931 12.5723 28.23 11.4946 27.8628C10.0583 27.5089 8.97594 27.2315 8.82273 26.7915C8.32299 25.089 8.44888 23.2642 9.17722 21.646C10.2976 19.6277 12.615 17.2647 13.812 16.8247ZM25.5844 25.1744C25.7053 25.1923 25.8201 25.2409 25.9165 25.316C26.0128 25.391 26.0883 25.4903 26.1352 25.6031C26.182 25.7157 26.1988 25.8385 26.1841 25.9595C26.1841 26.715 25.2266 26.7441 24.853 26.4478C24.4796 26.1513 24.6038 25.51 25.2261 25.2134C25.34 25.1697 25.4637 25.1565 25.5844 25.1744ZM42.5747 22.2974C42.789 22.3222 42.993 22.4033 43.1655 22.5328C43.338 22.6622 43.4736 22.835 43.5571 23.0337C43.6405 23.2324 43.6695 23.45 43.6411 23.6636C43.6411 24.9454 41.9459 24.993 41.3618 24.4956C41.2152 24.3343 41.1115 24.1383 41.061 23.9263C41.0106 23.7143 41.0145 23.4927 41.0727 23.2828C41.1311 23.0727 41.2424 22.8809 41.395 22.7251C41.5475 22.5694 41.737 22.455 41.9458 22.3921C42.1433 22.3054 42.3604 22.2727 42.5747 22.2974ZM34.352 13.1617C35.0887 13.2595 35.7902 13.5353 36.396 13.9654C37.0017 14.3954 37.4939 14.9667 37.8286 15.6294C38.8624 17.7047 38.4695 18.9765 37.7514 19.9712C37.1033 20.7097 36.2672 21.2595 35.3315 21.5611C34.3957 21.8626 33.395 21.9052 32.437 21.6841C31.7457 21.5495 31.1117 21.207 30.6206 20.7027C30.1295 20.1984 29.8047 19.5558 29.6889 18.8619C29.6123 18.2592 29.5262 17.2261 29.6889 17.2261C29.8523 17.2277 30.9618 19.4918 31.2876 19.4165C31.6131 19.34 31.9198 18.6234 31.8052 18.4605C31.2173 17.6478 30.7109 16.779 30.2925 15.8677C30.4079 15.751 30.8093 14.7975 31.0102 15.0357C31.2113 15.2748 32.2833 18.1434 32.5229 17.982C32.7623 17.8194 33.1649 17.1023 33.0024 16.8247C32.8397 16.5475 31.5292 14.4364 31.728 14.2329C31.9291 14.0321 32.8396 13.3621 33.0024 13.5152C33.1655 13.67 33.6819 15.5908 33.9594 15.6294C34.0397 15.6348 34.1203 15.6229 34.1958 15.5953C34.2713 15.5676 34.3402 15.5242 34.3979 15.4683C34.4555 15.4125 34.5007 15.3454 34.5307 15.271C34.5608 15.1965 34.5756 15.116 34.5727 15.0357C34.5151 14.7482 34.075 13.2391 34.352 13.1617ZM22.6509 12.9312C22.9958 12.8453 23.8189 12.932 23.7329 13.7828C23.6467 14.6338 22.7274 14.4242 22.3442 14.2329C22.2435 14.1411 22.1687 14.0232 22.1284 13.8931C22.0882 13.7631 22.0835 13.6242 22.1147 13.4917C22.146 13.3594 22.2122 13.2376 22.3061 13.1392C22.4003 13.0406 22.5197 12.9686 22.6509 12.9312ZM34.562 6.10111C34.781 6.11678 34.9908 6.19444 35.1675 6.32474C35.344 6.455 35.4806 6.63207 35.56 6.83646C35.6394 7.04088 35.6581 7.26393 35.6157 7.47904C35.4338 8.57902 33.9885 8.56003 33.5288 8.1392C33.4001 7.99905 33.3066 7.83041 33.2563 7.64701C33.2061 7.46357 33.2004 7.2706 33.2397 7.08451C33.279 6.8985 33.3618 6.72419 33.4819 6.5767C33.6021 6.42913 33.7567 6.31216 33.9311 6.23588C34.1244 6.13216 34.3431 6.08547 34.562 6.10111ZM20.3139 5.20267C23.0048 4.7818 26.3568 2.45758 26.5962 2.87845C26.8354 3.29996 26.6529 5.86325 25.5805 6.76224C24.5079 7.66112 21.8656 7.83307 20.1899 7.53666C18.5141 7.24013 15.8804 5.74792 16.4262 5.62357C16.7327 5.55662 17.6232 5.62353 20.3139 5.20267Z" fill="#A3E871"/>
</svg>
