<svg width="50" height="45" viewBox="0 0 50 45" fill="none" xmlns="http://www.w3.org/2000/svg">
<path d="M5.46536 12.5012C6.85234 11.2386 5.64711 7.77592 9.34889 5.74807C13.0507 3.72021 15.2125 4.42805 15.2125 4.42805C15.7732 4.14743 16.3785 3.96619 17.0012 3.89239C18.0151 3.76804 19.4499 4.37066 22.7404 2.93585C26.0309 1.50105 27.5231 0.123642 30.3927 0.00885814C33.2623 -0.105926 37.8632 0.898436 39.9006 2.81151C41.938 4.72457 42.0528 9.98551 44.7981 14.1751C47.5433 18.3648 50.0016 22.0092 49.9442 24.8788C49.8868 27.7484 48.0886 30.551 44.9798 34.7406C43.143 37.3441 41.061 39.7657 38.7623 41.972C37.8058 42.8138 35.3571 45.3199 31.3492 44.966C27.3413 44.6121 23.6969 42.8138 22.2047 42.4503C20.7294 41.9962 19.1576 41.9564 17.6612 42.3355C15.5664 42.9789 13.3949 43.3392 11.2046 43.4068C9.71238 43.2921 6.12537 40.9007 4.2123 36.7111C2.29923 32.5215 -0.570371 22.6596 0.0992035 19.79C0.768778 16.9204 3.4949 14.2899 5.46536 12.5012Z" fill="#1D1D1B"/>
<path d="M7.01492 12.7977C7.6558 11.8412 8.44972 8.43591 9.64539 7.53677C10.8411 6.63763 13.835 5.44196 14.3707 5.86283C15.5297 7.31884 17.1542 8.33202 18.9716 8.73244C22.3195 9.63158 24.7108 9.74637 26.9874 7.59416C27.6289 7.06074 28.1324 6.38064 28.4554 5.61141C28.7784 4.84218 28.9114 4.00646 28.843 3.17497C28.9078 2.69694 29.092 2.24294 29.3787 1.85495C29.6178 1.68278 37.2701 2.16105 39.0014 4.37064C40.7328 6.58024 41.1536 12.7403 43.7267 16.5665C46.2998 20.3926 47.7346 22.3631 47.7346 24.8118C47.7346 27.2605 47.0746 29.4223 44.3867 32.531C41.6989 35.6398 37.8632 41.4364 35.9501 42.3355C33.7484 43.284 31.3137 43.5537 28.9578 43.1103C26.6908 42.632 24.1178 39.8772 20.1099 40.2981C16.102 40.719 14.0168 42.5842 10.7837 41.5511C7.55058 40.5181 4.62358 33.1815 3.49487 28.8197C2.36616 24.4579 0.864402 20.8709 2.3566 18.4795C3.84879 16.0882 6.36448 13.7542 7.01492 12.7977Z" fill="#E6E4DA"/>
<path d="M16.4082 5.62371C16.7142 5.55675 17.6038 5.62371 20.2917 5.20283C22.9795 4.78196 26.3274 2.45758 26.5665 2.87845C26.8057 3.29933 26.6239 5.86284 25.5526 6.76198C24.4813 7.66112 21.8413 7.8333 20.1673 7.53678C18.4934 7.24025 15.8629 5.74805 16.4082 5.62371Z" fill="white"/>
<path d="M9.66455 10.7699C9.86756 9.68895 10.383 8.69126 11.1472 7.90026C11.702 7.5846 13.4142 7.05851 13.5385 7.34547C13.6629 7.63243 13.969 8.06287 13.6533 8.21592C13.3376 8.36896 11.9411 8.45505 11.7402 8.97158C11.4466 9.69441 11.0711 10.3812 10.6211 11.0186C10.3628 11.2099 9.76977 10.9229 9.66455 10.7699Z" fill="#1D1D1B"/>
<path d="M4.82442 17.5421C5.07312 17.3317 6.29749 17.743 6.14444 18.0204C5.9914 18.2978 4.7479 19.2161 4.7479 20.45C4.7479 21.6839 5.14008 22.6405 4.82442 22.7648C4.50877 22.8892 3.66702 23.2048 3.59049 22.6883C3.44442 21.8835 3.41864 21.0615 3.51397 20.2491C3.8285 19.2926 4.26921 18.3822 4.82442 17.5421Z" fill="#1D1D1B"/>
<path d="M33.4056 5.18374C33.7907 4.9824 34.2246 4.8935 34.6578 4.9272C35.091 4.9609 35.5059 5.11584 35.8552 5.3743C36.2045 5.63276 36.4739 5.9843 36.6328 6.38871C36.7917 6.79313 36.8335 7.23409 36.7535 7.66116C36.39 9.85162 33.5204 9.81336 32.6021 8.97161C32.3489 8.69122 32.1658 8.35483 32.0677 7.99C31.9695 7.62517 31.9593 7.24229 32.0376 6.87271C32.116 6.50314 32.2809 6.1574 32.5187 5.86383C32.7564 5.57025 33.0604 5.33719 33.4056 5.18374Z" fill="#1D1D1B"/>
<path d="M33.8935 6.23591C34.0867 6.13207 34.3054 6.08525 34.5241 6.10092C34.7429 6.11658 34.9527 6.19408 35.1291 6.32439C35.3055 6.4547 35.4413 6.63245 35.5206 6.83693C35.5999 7.04142 35.6194 7.26423 35.577 7.4794C35.3952 8.57942 33.9509 8.56029 33.4917 8.13941C33.3631 7.9992 33.2699 7.83033 33.2196 7.64682C33.1694 7.46332 33.1637 7.27048 33.203 7.08433C33.2423 6.89818 33.3254 6.72409 33.4455 6.57653C33.5656 6.42897 33.7192 6.31219 33.8935 6.23591Z" fill="white"/>
<path d="M22.2812 11.9751C23.056 11.7264 24.9691 11.9751 24.7969 13.8882C24.6248 15.8012 22.4439 15.3612 21.5638 14.9212C20.6838 14.4812 20.6838 12.3195 22.2812 11.9751Z" fill="#1D1D1B"/>
<path d="M22.6256 12.9317C22.9699 12.8456 23.7925 12.9317 23.7065 13.783C23.6204 14.6343 22.7021 14.4239 22.3195 14.2325C22.2189 14.1407 22.1447 14.0236 22.1044 13.8935C22.0642 13.7634 22.0595 13.6248 22.0907 13.4923C22.1219 13.3597 22.1879 13.2378 22.2819 13.1392C22.376 13.0407 22.4946 12.969 22.6256 12.9317Z" fill="white"/>
<path d="M13.1176 15.9926C14.4759 15.3421 17.9003 15.7056 20.3299 16.7865C22.7595 17.8674 22.0995 19.2543 21.1429 22.6022C20.1864 25.9501 19.3351 28.2362 18.6559 29.0971C17.9722 29.8959 17.0919 30.5025 16.102 30.8571C15.5855 30.9336 13.6341 31.0102 13.2324 30.5797C12.7292 29.7407 11.9365 29.1147 11.0037 28.8197C9.76974 28.5806 8.48798 28.8197 7.73232 27.1458C7.34317 26.1673 7.18392 25.1124 7.26684 24.0627C7.34976 23.0129 7.67264 21.9962 8.21059 21.0909C9.3498 18.9751 11.0469 17.2118 13.1176 15.9926Z" fill="#1D1D1B"/>
<path d="M13.7967 16.8247C14.5619 16.5378 17.862 17.303 19.0098 17.6665C20.1577 18.03 20.9707 18.6996 20.8081 19.6944C20.2367 21.669 19.5565 23.6105 18.7707 25.5101C17.9385 27.7866 17.9385 28.3032 16.7046 29.0588C15.4707 29.8145 14.5524 30.1015 14.2272 29.7762C13.5099 28.8933 12.5585 28.2303 11.4819 27.8632C10.0471 27.5092 8.96622 27.2319 8.81317 26.7918C8.31385 25.0891 8.43937 23.264 9.16709 21.6457C10.2862 19.6274 12.6011 17.2648 13.7967 16.8247Z" fill="white"/>
<path d="M31.77 12.5969C33.0647 12.0291 34.5282 11.9817 35.8569 12.4644C37.1856 12.947 38.2774 13.9228 38.9058 15.1891C39.2297 15.7653 39.4342 16.401 39.5068 17.058C39.5795 17.7151 39.5189 18.38 39.3287 19.0131C39.1385 19.6462 38.8226 20.2345 38.3999 20.7427C37.9771 21.2509 37.4562 21.6686 36.8684 21.9709C34.8405 22.8414 30.89 23.3579 29.2161 20.8518C27.5421 18.3457 28.1448 14.6343 31.77 12.5969Z" fill="#1D1D1B"/>
<path d="M34.3145 13.1612C35.0503 13.2591 35.7512 13.535 36.3563 13.9651C36.9613 14.3951 37.4523 14.9663 37.7867 15.6291C38.8197 17.7048 38.4276 18.977 37.7102 19.9718C37.0627 20.7104 36.2271 21.2596 35.2923 21.5611C34.3575 21.8626 33.3584 21.9051 32.4014 21.6839C31.7108 21.5493 31.0779 21.2069 30.5872 20.7026C30.0966 20.1983 29.7718 19.5562 29.6561 18.8622C29.5796 18.2596 29.4935 17.2265 29.6561 17.2265C29.8187 17.2265 30.9283 19.4935 31.2535 19.417C31.5788 19.3404 31.8849 18.623 31.7701 18.4604C31.1829 17.6477 30.6767 16.7795 30.2588 15.8682C30.3735 15.7534 30.7753 14.7969 30.9762 15.036C31.177 15.2752 32.2483 18.1448 32.4875 17.9822C32.7266 17.8195 33.1284 17.1021 32.9657 16.8248C32.8031 16.5474 31.4927 14.4334 31.6936 14.2325C31.8944 14.0317 32.8031 13.3621 32.9657 13.5151C33.1284 13.6682 33.6449 15.5908 33.9223 15.6291C34.0024 15.6345 34.0828 15.623 34.1583 15.5954C34.2337 15.5677 34.3025 15.5246 34.3602 15.4687C34.4179 15.4128 34.4633 15.3454 34.4933 15.2709C34.5233 15.1963 34.5373 15.1163 34.5345 15.036C34.4771 14.7491 34.0371 13.2377 34.3145 13.1612Z" fill="white"/>
<path d="M9.7315 23.8361C9.60715 23.5492 10.2098 23.004 10.5254 23.2814C10.8411 23.5587 12.3141 26.2753 12.0367 26.4666C11.7593 26.6579 11.5202 26.7918 11.3193 26.7057C10.7133 25.7937 10.1823 24.8341 9.7315 23.8361Z" fill="#1D1D1B"/>
<path d="M11.2046 21.4065C11.262 21.1291 11.7211 20.7752 11.9985 20.9283C12.7863 22.2647 13.4276 23.6822 13.9116 25.1562C13.939 25.3189 13.9054 25.4861 13.8171 25.6255C13.7288 25.765 13.5922 25.867 13.4333 25.9118C12.5553 24.4808 11.8093 22.9728 11.2046 21.4065Z" fill="#1D1D1B"/>
<path d="M12.9549 19.4169C12.8975 19.2256 13.4715 18.6995 13.7106 18.8621C14.3949 20.006 14.8801 21.2577 15.1454 22.5639C15.0689 23.1187 14.7915 23.4439 14.5906 23.2813C13.9725 22.0253 13.4264 20.7351 12.9549 19.4169Z" fill="#1D1D1B"/>
<path d="M15.1072 18.2978C15.1072 18.0682 15.9011 17.9439 16.0637 18.0586C16.3615 18.6244 16.5128 19.2559 16.5037 19.8952C16.3411 20.2491 16.102 20.6126 15.8628 20.3352C15.4924 19.7061 15.2365 19.0163 15.1072 18.2978Z" fill="#1D1D1B"/>
<path d="M24.8735 24.2379C25.1577 24.1151 25.4694 24.0699 25.7768 24.1068C26.0842 24.1438 26.3763 24.2617 26.6233 24.4484C26.8703 24.6351 27.0633 24.8839 27.1827 25.1696C27.3022 25.4553 27.3437 25.7675 27.3031 26.0744C27.3031 27.9014 24.8735 27.9875 24.0317 27.2701C23.19 26.5527 23.3621 24.9553 24.8735 24.2379Z" fill="#1D1D1B"/>
<path d="M25.1986 25.2136C25.3126 25.1698 25.4359 25.1562 25.5567 25.1742C25.6775 25.1922 25.7915 25.2411 25.8878 25.3162C25.9841 25.3913 26.0593 25.49 26.1061 25.6027C26.153 25.7155 26.1699 25.8385 26.1551 25.9597C26.1551 26.7153 25.1986 26.744 24.8256 26.4475C24.4525 26.151 24.5769 25.5101 25.1986 25.2136Z" fill="white"/>
<path d="M41.5937 21.4735C41.9492 21.3197 42.3392 21.2628 42.7238 21.3088C43.1085 21.3548 43.474 21.502 43.7832 21.7354C44.0924 21.9688 44.3342 22.2799 44.4839 22.6372C44.6337 22.9945 44.6859 23.3851 44.6355 23.7692C44.6355 26.0553 41.5937 26.1605 40.5511 25.2614C39.5084 24.3622 39.6997 22.3727 41.5937 21.4735Z" fill="#1D1D1B"/>
<path d="M41.8998 22.3918C42.0971 22.305 42.314 22.2724 42.5282 22.2971C42.7424 22.3219 42.9461 22.4032 43.1184 22.5327C43.2908 22.6622 43.4255 22.8353 43.5089 23.0341C43.5923 23.2329 43.6213 23.4503 43.5929 23.664C43.5929 24.9457 41.8998 24.9936 41.3163 24.4962C41.1698 24.3348 41.0665 24.1389 41.0161 23.9268C40.9657 23.7147 40.9698 23.4933 41.028 23.2832C41.0863 23.0731 41.1968 22.8812 41.3492 22.7253C41.5016 22.5694 41.6911 22.4547 41.8998 22.3918Z" fill="white"/>
<path d="M17.5369 33.9754C18.6656 33.4589 21.1621 34.2146 20.6456 36.3668C20.1291 38.519 17.6229 37.9163 16.8195 37.2372C16.565 37.0112 16.3754 36.7214 16.2703 36.3978C16.1652 36.0741 16.1483 35.7283 16.2214 35.3959C16.2945 35.0635 16.455 34.7567 16.6862 34.507C16.9174 34.2573 17.2111 34.0738 17.5369 33.9754Z" fill="#1D1D1B"/>
<path d="M17.9002 34.6832C18.5889 34.3676 20.129 34.8267 19.8133 36.1563C19.4976 37.4859 17.9576 37.1128 17.4698 36.692C17.318 36.551 17.2055 36.3731 17.1432 36.1756C17.0809 35.9781 17.0709 35.7678 17.1143 35.5653C17.1577 35.3628 17.2529 35.1751 17.3907 35.0204C17.5285 34.8658 17.7041 34.7496 17.9002 34.6832Z" fill="white"/>
<path d="M28.4988 32.885C29.331 32.5789 30.0962 33.6406 31.8849 33.1241C33.6736 32.6076 35.7493 31.7754 37.4041 32.0623C37.9232 32.07 38.424 32.2556 38.8227 32.5882C39.2214 32.9207 39.4939 33.38 39.5946 33.8893C39.6746 34.7474 39.5398 35.612 39.2024 36.405C38.3329 37.2775 37.413 38.0983 36.4476 38.8633C35.5771 39.7051 35.051 40.499 34.0945 40.3364C33.138 40.1738 32.4684 39.5424 30.9858 39.5042C29.9833 39.5767 28.9772 39.4264 28.0396 39.0642C27.284 38.7103 25.7248 37.3902 25.8109 36.4337C26.2272 34.9541 27.1873 33.6865 28.4988 32.885Z" fill="#1D1D1B"/>
<path d="M28.0587 34.4824C28.0587 34.4824 28.1448 36.7972 28.384 36.8737C28.6231 36.9502 29.0153 36.9885 29.0153 36.7972C29.0153 36.6059 28.6996 33.9276 29.0153 33.8798C29.3309 33.8319 29.6944 33.9276 29.7327 34.0424C29.7709 34.1572 29.6561 37.0363 29.9718 37.0746C30.2875 37.1129 30.6127 37.2276 30.6127 37.0746C30.6127 36.9216 30.6127 34.205 30.6127 34.205C30.6127 34.205 31.0909 34.205 31.1675 34.3198C31.244 34.4346 31.1675 37.1894 31.4927 37.2755C31.8179 37.3616 32.124 37.2755 32.124 37.0746C32.0181 36.0451 31.9925 35.0089 32.0475 33.9754C32.2101 33.9754 33.004 33.5354 33.004 33.698C33.004 33.8606 33.004 36.0033 33.2049 36.0033C33.4058 36.0033 33.9988 36.0033 33.9988 35.7259C33.9988 35.4485 33.7979 33.6119 33.9988 33.4972C34.1997 33.3824 35.118 33.0189 35.1562 33.1815C35.1945 33.3441 35.0797 34.7311 35.2423 34.7311C35.4049 34.7311 35.8736 34.7311 35.8736 34.4537C35.8736 34.1763 35.8736 32.9806 36.0362 32.9424C36.1988 32.9041 38.1884 32.9424 38.4276 33.4589C38.6604 34.1229 38.7002 34.8393 38.5424 35.525C38.3893 35.7641 36.8302 36.8833 36.1128 37.7633C35.3954 38.6433 34.8406 39.2746 34.2858 39.3129C33.731 39.3512 32.6501 38.6337 31.7318 38.4807C30.8136 38.3277 29.3022 38.4807 28.4605 38.079C28.1347 37.9541 27.8447 37.7509 27.6161 37.4873C27.3876 37.2237 27.2275 36.9078 27.15 36.5676C27.2692 35.8061 27.5821 35.0881 28.0587 34.4824Z" fill="white"/>
<path d="M29.1013 27.5093C28.843 27.3371 29.8569 27.0693 30.0578 27.2319C30.2587 27.3945 31.5404 30.4554 31.2535 30.6563C30.9539 30.7947 30.6269 30.8634 30.2969 30.8572C30.2969 30.8572 29.2161 27.5858 29.1013 27.5093Z" fill="#1D1D1B"/>
<path d="M30.536 25.6727C30.6699 25.5292 31.2534 25.0797 31.4925 25.271C31.9983 26.3884 32.281 27.5939 32.3247 28.8197C32.1239 29.0588 31.4543 29.2214 31.3682 28.9823C31.0114 27.9006 30.7333 26.7945 30.536 25.6727Z" fill="#1D1D1B"/>
<path d="M32.9274 24.8788C33.0421 24.7162 33.5969 24.5153 33.683 24.7927C33.9089 25.7879 34.0276 26.8044 34.0369 27.8249C33.8839 27.9493 33.2813 28.2267 33.1665 27.9014C32.9697 26.9066 32.8894 25.8922 32.9274 24.8788Z" fill="#1D1D1B"/>
<path d="M38.1406 29.6997C38.2745 29.824 41.1537 31.7467 41.1537 32.2536C41.1537 32.7606 41.0963 33.2102 40.4554 32.7702C39.4552 32.0991 38.4969 31.3676 37.5858 30.5797C37.5858 30.3788 38.0641 29.6232 38.1406 29.6997Z" fill="#1D1D1B"/>
<path d="M38.3606 27.9493C38.3127 27.7293 38.8006 27.3466 39.0397 27.4232C39.2788 27.4997 42.665 30.9337 42.4737 31.0963C42.2824 31.2589 42.0719 31.5745 41.8711 31.5745C40.5854 30.4836 39.4096 29.2694 38.3606 27.9493Z" fill="#1D1D1B"/>
<path d="M40.3405 26.9449C40.3405 26.9449 40.7326 26.2753 41.0579 26.4666C41.3831 26.6579 43.6883 29.1832 43.6022 29.4606C43.5161 29.738 43.0857 30.2162 42.8848 30.1015C42.684 29.9867 40.4552 27.0692 40.3405 26.9449Z" fill="#1D1D1B"/>
</svg>
