<svg width="50" height="45" viewBox="0 0 50 45" fill="none" xmlns="http://www.w3.org/2000/svg">
<path d="M5.47136 12.5012C6.85986 11.2386 5.6533 7.77592 9.35915 5.74807C13.065 3.72021 15.2291 4.42805 15.2291 4.42805C15.7905 4.14743 16.3964 3.96619 17.0198 3.89239C18.0349 3.76804 19.4712 4.37066 22.7653 2.93585C26.0594 1.50105 27.5532 0.123642 30.426 0.00885814C33.2987 -0.105926 37.9047 0.898436 39.9444 2.81151C41.984 4.72457 42.0989 9.98551 44.8472 14.1751C47.5955 18.3648 50.0565 22.0092 49.999 24.8788C49.9416 27.7484 48.1413 30.551 45.0292 34.7406C43.1903 37.3441 41.1061 39.7657 38.8049 41.972C37.8473 42.8138 35.3959 45.3199 31.3836 44.966C27.3713 44.6121 23.7229 42.8138 22.2291 42.4503C20.7521 41.9962 19.1786 41.9564 17.6806 42.3355C15.5835 42.9789 13.4096 43.3392 11.2169 43.4068C9.72303 43.2921 6.13209 40.9007 4.21692 36.7111C2.30176 32.5215 -0.570996 22.6596 0.0993124 19.79C0.769621 16.9204 3.49874 14.2899 5.47136 12.5012Z" fill="#1D1D1B"/>
<path d="M7.02267 12.7977C7.66425 11.8412 8.45904 8.43593 9.65602 7.53679C10.853 6.63764 13.8502 5.44197 14.3865 5.86285C15.5468 7.31886 17.1731 8.33204 18.9925 8.73245C22.344 9.6316 24.738 9.74638 27.017 7.59418C27.6592 7.06076 28.1633 6.38066 28.4867 5.61143C28.8101 4.8422 28.9432 4.00648 28.8747 3.17499C28.9396 2.69695 29.124 2.24296 29.411 1.85497C29.6504 1.68279 37.311 2.16106 39.0443 4.37066C40.7775 6.58025 41.1988 12.7403 43.7747 16.5665C46.3506 20.3926 47.787 22.3631 47.787 24.8118C47.787 27.2605 47.1263 29.4223 44.4355 32.531C41.7447 35.6398 37.9048 41.4364 35.9896 42.3355C33.7855 43.284 31.3481 43.5538 28.9896 43.1103C26.7202 42.632 24.1443 39.8772 20.132 40.2981C16.1197 40.719 14.0322 42.5842 10.7955 41.5512C7.55892 40.5181 4.62871 33.1815 3.49876 28.8197C2.36881 24.4579 0.865404 20.8709 2.35924 18.4795C3.85307 16.0882 6.37151 13.7543 7.02267 12.7977Z" fill="#E6E4DA"/>
<path d="M9.67517 10.7699C9.87841 9.68895 10.3944 8.69126 11.1594 7.90026C11.7148 7.5846 13.4289 7.05851 13.5534 7.34547C13.6779 7.63243 13.9843 8.06287 13.6683 8.21592C13.3523 8.36896 11.9542 8.45505 11.7531 8.97158C11.4591 9.69441 11.0832 10.3812 10.6328 11.0186C10.3742 11.2099 9.78051 10.9229 9.67517 10.7699Z" fill="#1D1D1B"/>
<path d="M4.82971 17.5421C5.07868 17.3317 6.30439 17.743 6.15117 18.0204C5.99796 18.2978 4.7531 19.2161 4.7531 20.45C4.7531 21.6839 5.14571 22.6405 4.82971 22.7648C4.5137 22.8892 3.67103 23.2048 3.59442 22.6883C3.44819 21.8835 3.42238 21.0615 3.51782 20.2491C3.8327 19.2926 4.27388 18.3822 4.82971 17.5421Z" fill="#1D1D1B"/>
<path d="M33.4422 5.18374C33.8277 4.9824 34.2621 4.8935 34.6957 4.9272C35.1294 4.9609 35.5448 5.11584 35.8945 5.3743C36.2441 5.63276 36.5139 5.9843 36.6729 6.38871C36.832 6.79313 36.8738 7.23409 36.7938 7.66116C36.4299 9.85162 33.5571 9.81336 32.6378 8.97161C32.3844 8.69122 32.201 8.35483 32.1028 7.99C32.0046 7.62517 31.9943 7.24229 32.0727 6.87271C32.1512 6.50314 32.3162 6.1574 32.5543 5.86383C32.7923 5.57025 33.0966 5.33719 33.4422 5.18374Z" fill="#1D1D1B"/>
<path d="M22.3056 11.9751C23.0813 11.7264 24.9964 11.9751 24.8241 13.8882C24.6517 15.8013 22.4684 15.3613 21.5874 14.9212C20.7065 14.4812 20.7065 12.3195 22.3056 11.9751Z" fill="#1D1D1B"/>
<path d="M13.132 15.9926C14.4918 15.3421 17.9199 15.7056 20.3522 16.7865C22.7844 17.8674 22.1237 19.2544 21.1661 22.6022C20.2085 25.9501 19.3563 28.2362 18.6764 29.0971C17.9919 29.8959 17.1106 30.5025 16.1196 30.8571C15.6026 30.9337 13.6491 31.0102 13.2469 30.5797C12.7432 29.7407 11.9496 29.1147 11.0157 28.8197C9.78044 28.5806 8.49728 28.8197 7.74079 27.1458C7.35121 26.1673 7.19179 25.1125 7.2748 24.0627C7.35781 23.0129 7.68104 21.9962 8.21958 21.0909C9.36004 18.9751 11.059 17.2118 13.132 15.9926Z" fill="#1D1D1B"/>
<path d="M31.8049 12.5969C33.101 12.0291 34.5661 11.9817 35.8963 12.4644C37.2264 12.947 38.3194 13.9228 38.9485 15.1891C39.2728 15.7653 39.4775 16.401 39.5502 17.058C39.623 17.7151 39.5623 18.38 39.3719 19.0131C39.1815 19.6462 38.8653 20.2345 38.442 20.7427C38.0188 21.2509 37.4974 21.6686 36.9088 21.9709C34.8788 22.8414 30.9239 23.3579 29.2482 20.8518C27.5724 18.3457 28.1757 14.6343 31.8049 12.5969Z" fill="#1D1D1B"/>
<path d="M9.74213 23.8361C9.61765 23.5492 10.2209 23.004 10.5369 23.2814C10.8529 23.5587 12.3276 26.2753 12.0499 26.4666C11.7722 26.6579 11.5328 26.7918 11.3317 26.7057C10.725 25.7937 10.1934 24.8341 9.74213 23.8361Z" fill="#1D1D1B"/>
<path d="M11.2169 21.4065C11.2744 21.1291 11.734 20.7752 12.0117 20.9283C12.8003 22.2647 13.4424 23.6822 13.9269 25.1562C13.9543 25.3189 13.9207 25.4861 13.8323 25.6255C13.7439 25.765 13.6071 25.867 13.4481 25.9118C12.5691 24.4808 11.8223 22.9728 11.2169 21.4065Z" fill="#1D1D1B"/>
<path d="M12.9691 19.4169C12.9116 19.2256 13.4862 18.6995 13.7256 18.8621C14.4107 20.006 14.8964 21.2577 15.162 22.5639C15.0854 23.1187 14.8077 23.4439 14.6066 23.2813C13.9878 22.0253 13.4411 20.7351 12.9691 19.4169Z" fill="#1D1D1B"/>
<path d="M15.1238 18.2978C15.1238 18.0682 15.9186 17.9439 16.0814 18.0586C16.3795 18.6244 16.531 19.2559 16.5219 19.8952C16.3591 20.2491 16.1197 20.6126 15.8803 20.3352C15.5094 19.7061 15.2533 19.0163 15.1238 18.2978Z" fill="#1D1D1B"/>
<path d="M24.9007 24.2379C25.1852 24.1151 25.4973 24.0699 25.805 24.1068C26.1128 24.1438 26.4052 24.2617 26.6524 24.4484C26.8997 24.6351 27.093 24.8839 27.2125 25.1696C27.3321 25.4553 27.3736 25.7675 27.333 26.0744C27.333 27.9014 24.9007 27.9875 24.058 27.2701C23.2153 26.5527 23.3877 24.9553 24.9007 24.2379Z" fill="#1D1D1B"/>
<path d="M41.6393 21.4735C41.9953 21.3197 42.3856 21.2628 42.7707 21.3089C43.1558 21.3549 43.5217 21.502 43.8313 21.7354C44.1408 21.9688 44.3829 22.28 44.5328 22.6372C44.6826 22.9945 44.735 23.3851 44.6845 23.7692C44.6845 26.0553 41.6393 26.1605 40.5956 25.2614C39.5518 24.3623 39.7433 22.3727 41.6393 21.4735Z" fill="#1D1D1B"/>
<path d="M17.556 33.9754C18.686 33.4589 21.1853 34.2146 20.6682 36.3668C20.1511 38.519 17.6422 37.9163 16.8379 37.2372C16.5831 37.0112 16.3934 36.7214 16.2881 36.3978C16.1829 36.0741 16.166 35.7283 16.2392 35.3959C16.3123 35.0635 16.473 34.7567 16.7044 34.507C16.9359 34.2573 17.2299 34.0738 17.556 33.9754Z" fill="#1D1D1B"/>
<path d="M28.5301 32.885C29.3631 32.5789 30.1292 33.6406 31.9199 33.1241C33.7106 32.6076 35.7885 31.7754 37.4452 32.0623C37.9648 32.07 38.4662 32.2556 38.8653 32.5882C39.2644 32.9207 39.5372 33.38 39.638 33.8893C39.7181 34.7474 39.5832 35.612 39.2454 36.405C38.3749 37.2775 37.4541 38.0983 36.4876 38.8633C35.6162 39.7051 35.0895 40.499 34.1319 40.3364C33.1743 40.1738 32.504 39.5424 31.0198 39.5042C30.0162 39.5767 29.009 39.4264 28.0704 39.0642C27.3139 38.7103 25.7531 37.3902 25.8392 36.4337C26.256 34.9541 27.2171 33.6865 28.5301 32.885Z" fill="#1D1D1B"/>
<path d="M36.0757 32.9419C36.2384 32.9037 38.2306 32.9421 38.4702 33.4585C38.7033 34.1225 38.7425 34.8392 38.5844 35.5249C38.4308 35.7643 36.8709 36.8834 36.1528 37.7632C35.4347 38.6431 34.879 39.2746 34.3237 39.313C33.7684 39.3513 32.6863 38.6342 31.7671 38.481C30.8478 38.3279 29.3343 38.4804 28.4917 38.0786C28.1656 37.9538 27.8757 37.7504 27.6469 37.4869C27.4182 37.2233 27.2577 36.9079 27.1802 36.5679C27.2994 35.8064 27.6122 35.0877 28.0893 34.482C28.0893 34.482 28.1761 36.797 28.4155 36.8736C28.6548 36.95 29.047 36.9884 29.0473 36.7974C29.0473 36.6061 28.7313 33.9273 29.0473 33.8794C29.3633 33.8317 29.7268 33.9278 29.7651 34.0425C29.8033 34.1587 29.6889 37.0343 30.0044 37.0747C30.3202 37.113 30.6457 37.2275 30.646 37.0747V34.2046C30.646 34.2046 31.125 34.2051 31.2016 34.3199C31.2782 34.4353 31.2023 37.1889 31.5278 37.2749C31.8532 37.3609 32.1594 37.2754 32.1596 37.0747C32.0536 36.0452 32.0275 35.0086 32.0825 33.9751C32.2452 33.9751 33.0399 33.5357 33.0405 33.6978C33.0405 33.8604 33.0406 36.0035 33.2417 36.0035C33.443 36.0035 34.0362 36.0031 34.0366 35.7261C34.0366 35.4487 33.8355 33.6114 34.0366 33.4966C34.2386 33.3816 35.1556 33.0194 35.1948 33.1812C35.2331 33.3437 35.1184 34.7291 35.2807 34.731C35.4435 34.731 35.9135 34.731 35.9136 34.4536C35.9136 34.1763 35.913 32.9807 36.0757 32.9419ZM17.9204 34.6831C18.6099 34.3679 20.1509 34.8268 19.8354 36.1558C19.5194 37.4854 17.9771 37.1128 17.4887 36.6919C17.3369 36.551 17.224 36.3728 17.1616 36.1753C17.0993 35.9779 17.0899 35.7674 17.1333 35.565C17.1767 35.3626 17.2718 35.1746 17.4096 35.0201C17.5476 34.8655 17.724 34.7495 17.9204 34.6831ZM13.812 16.8247C14.5781 16.5378 17.8816 17.3031 19.0307 17.6665C20.1797 18.03 20.994 18.6994 20.8315 19.6939C20.2595 21.6685 19.5782 23.6107 18.7915 25.5103C17.9585 27.7867 17.9584 28.3035 16.7231 29.0591C15.4879 29.8148 14.5682 30.1011 14.2427 29.7759C13.5247 28.8931 12.5723 28.23 11.4946 27.8628C10.0583 27.5089 8.97594 27.2315 8.82273 26.7915C8.32299 25.089 8.44888 23.2642 9.17722 21.646C10.2976 19.6277 12.615 17.2647 13.812 16.8247ZM25.5844 25.1744C25.7053 25.1923 25.8201 25.2409 25.9165 25.316C26.0128 25.391 26.0883 25.4903 26.1352 25.6031C26.182 25.7157 26.1988 25.8385 26.1841 25.9595C26.1841 26.715 25.2266 26.7441 24.853 26.4478C24.4796 26.1513 24.6038 25.51 25.2261 25.2134C25.34 25.1697 25.4637 25.1565 25.5844 25.1744ZM42.5747 22.2974C42.789 22.3222 42.993 22.4033 43.1655 22.5328C43.338 22.6622 43.4736 22.835 43.5571 23.0337C43.6405 23.2324 43.6695 23.45 43.6411 23.6636C43.6411 24.9454 41.9459 24.993 41.3618 24.4956C41.2152 24.3343 41.1115 24.1383 41.061 23.9263C41.0106 23.7143 41.0145 23.4927 41.0727 23.2828C41.1311 23.0728 41.2424 22.8809 41.395 22.7251C41.5475 22.5694 41.737 22.455 41.9458 22.3921C42.1433 22.3054 42.3604 22.2727 42.5747 22.2974ZM34.352 13.1617C35.0887 13.2595 35.7902 13.5353 36.396 13.9654C37.0017 14.3954 37.4939 14.9667 37.8286 15.6294C38.8624 17.7047 38.4695 18.9765 37.7514 19.9712C37.1033 20.7097 36.2672 21.2595 35.3315 21.5611C34.3957 21.8626 33.395 21.9052 32.437 21.6841C31.7457 21.5495 31.1117 21.207 30.6206 20.7027C30.1295 20.1984 29.8047 19.5558 29.6889 18.8619C29.6123 18.2592 29.5262 17.2261 29.6889 17.2261C29.8523 17.2277 30.9618 19.4918 31.2876 19.4165C31.6131 19.34 31.9198 18.6234 31.8052 18.4605C31.2173 17.6478 30.7109 16.779 30.2925 15.8677C30.4079 15.751 30.8093 14.7975 31.0102 15.0357C31.2113 15.2748 32.2833 18.1434 32.5229 17.982C32.7623 17.8194 33.1649 17.1023 33.0024 16.8247C32.8397 16.5475 31.5292 14.4364 31.728 14.2329C31.9291 14.0321 32.8396 13.3621 33.0024 13.5152C33.1655 13.67 33.6819 15.5908 33.9594 15.6294C34.0397 15.6348 34.1203 15.6229 34.1958 15.5953C34.2713 15.5676 34.3402 15.5242 34.3979 15.4683C34.4555 15.4125 34.5007 15.3454 34.5307 15.271C34.5608 15.1965 34.5756 15.116 34.5727 15.0357C34.5151 14.7482 34.075 13.2391 34.352 13.1617ZM22.6509 12.9312C22.9958 12.8453 23.8189 12.932 23.7329 13.7828C23.6467 14.6338 22.7274 14.4242 22.3442 14.2329C22.2435 14.1411 22.1687 14.0232 22.1284 13.8931C22.0882 13.7631 22.0835 13.6242 22.1147 13.4917C22.146 13.3594 22.2122 13.2376 22.3061 13.1392C22.4003 13.0406 22.5197 12.9686 22.6509 12.9312ZM34.562 6.10111C34.781 6.11678 34.9908 6.19444 35.1675 6.32474C35.344 6.455 35.4806 6.63208 35.56 6.83646C35.6394 7.04087 35.6581 7.26394 35.6157 7.47904C35.4338 8.57903 33.9885 8.56004 33.5288 8.1392C33.4001 7.99905 33.3066 7.83042 33.2563 7.64701C33.2061 7.46356 33.2004 7.2706 33.2397 7.08451C33.279 6.89849 33.3618 6.72419 33.4819 6.5767C33.6021 6.42913 33.7567 6.31216 33.9311 6.23588C34.1244 6.13216 34.3431 6.08547 34.562 6.10111ZM20.3139 5.20267C23.0048 4.7818 26.3568 2.45758 26.5962 2.87845C26.8354 3.29993 26.6529 5.86324 25.5805 6.76224C24.5079 7.66113 21.8656 7.83307 20.1899 7.53666C18.5141 7.24013 15.8804 5.74792 16.4262 5.62357C16.7327 5.55662 17.6232 5.62353 20.3139 5.20267Z" fill="white"/>
<path d="M29.1332 27.5093C28.8746 27.3371 29.8897 27.0693 30.0908 27.2319C30.2919 27.3945 31.575 30.4554 31.2878 30.6563C30.9879 30.7947 30.6605 30.8634 30.3302 30.8571C30.3302 30.8571 29.2481 27.5858 29.1332 27.5093Z" fill="#1D1D1B"/>
<path d="M30.5695 25.6727C30.7035 25.5292 31.2876 25.0797 31.527 25.271C32.0333 26.3884 32.3163 27.5939 32.3601 28.8197C32.159 29.0588 31.4887 29.2214 31.4026 28.9823C31.0454 27.9006 30.767 26.7945 30.5695 25.6727Z" fill="#1D1D1B"/>
<path d="M32.9635 24.8788C33.0784 24.7162 33.6338 24.5153 33.72 24.7927C33.9461 25.7879 34.0649 26.8044 34.0743 27.8249C33.9211 27.9493 33.3178 28.2267 33.2029 27.9014C33.0059 26.9066 32.9255 25.8922 32.9635 24.8788Z" fill="#1D1D1B"/>
<path d="M38.1825 29.6997C38.3165 29.824 41.1989 31.7467 41.1989 32.2536C41.1989 32.7606 41.1414 33.2102 40.4998 32.7702C39.4985 32.0991 38.5391 31.3676 37.6271 30.5797C37.6271 30.3788 38.1059 29.6232 38.1825 29.6997Z" fill="#1D1D1B"/>
<path d="M38.4027 27.9493C38.3548 27.7293 38.8432 27.3466 39.0826 27.4232C39.322 27.4997 42.7118 30.9337 42.5203 31.0963C42.3288 31.2589 42.1181 31.5745 41.917 31.5745C40.6299 30.4836 39.4529 29.2694 38.4027 27.9493Z" fill="#1D1D1B"/>
<path d="M40.3846 26.9449C40.3846 26.9449 40.7773 26.2753 41.1028 26.4666C41.4284 26.6579 43.7362 29.1832 43.65 29.4606C43.5638 29.738 43.1329 30.2162 42.9318 30.1015C42.7307 29.9867 40.4996 27.0692 40.3846 26.9449Z" fill="#1D1D1B"/>
</svg>
