<svg width="79" height="105" viewBox="0 0 79 105" fill="none" xmlns="http://www.w3.org/2000/svg">
<path fill-rule="evenodd" clip-rule="evenodd" d="M33.6151 3.377C25.1311 9.855 17.3331 21.505 14.2301 32.335C13.0511 36.45 12.6591 40.882 12.9001 47.366L13.2411 56.561L9.11508 60.289C3.39808 65.454 0.505082 72.55 0.0590816 82.5C-0.359918 91.855 1.50308 101.833 3.95508 103.367C5.33508 104.23 7.39008 103.261 14.7131 98.296C23.1411 92.582 23.8351 92.291 24.7921 94.079C25.5921 95.573 26.9111 96 30.7281 96H35.6351L35.9431 100.241C36.1791 103.502 36.6971 104.568 38.1841 104.85C40.6121 105.311 42.7501 102.483 42.7501 98.809C42.7501 96.152 42.9901 96 47.1931 96C50.5141 96 51.9931 95.491 53.0481 93.986C54.4181 92.028 54.7201 92.148 63.6491 98.202C71.0861 103.245 73.1651 104.23 74.5451 103.367C77.0271 101.814 78.8781 91.797 78.4061 82.475C77.8891 72.275 74.9991 65.269 69.2021 60.167L64.9321 56.408L64.9591 45.954C64.9891 33.861 62.8151 26.456 56.3931 16.781C52.3511 10.692 41.4841 0 39.3371 0C38.6221 0 36.0481 1.519 33.6151 3.377ZM43.7501 12.5L48.1661 17H38.7501H29.3341L33.7501 12.5C36.1791 10.025 38.4291 8 38.7501 8C39.0711 8 41.3211 10.025 43.7501 12.5ZM50.9931 25.858C50.8431 27.226 51.9971 29.932 53.7431 32.305C57.2731 37.105 57.8101 42 54.8071 42C52.3381 42 49.7191 45.686 49.8521 48.973C49.9451 51.261 50.0251 51.208 50.6931 48.413C51.7661 43.922 52.7331 42.762 54.9241 43.335C56.2761 43.689 57.1401 43.18 57.7481 41.672C59.1791 38.122 58.9581 46.181 57.3551 56C55.9891 64.368 52.9941 76 52.2051 76C50.8221 76 48.7071 69.471 49.2661 66.926C49.7511 64.718 49.5011 63.842 48.2461 63.36C47.3311 63.009 46.1991 61.772 45.7301 60.611L44.8771 58.5L44.8131 60.683C44.7741 62.043 45.5261 63.112 46.8101 63.519C48.4631 64.044 48.7501 64.723 48.2601 66.956C47.8561 68.792 48.3711 71.227 49.7761 74.119C51.8821 78.456 51.8841 78.55 50.0511 83.5C48.5191 87.637 47.7291 88.555 45.4751 88.816L42.7501 89.133V75.758C42.7501 61.087 41.8911 58.186 37.9241 59.445C35.8241 60.111 35.7501 60.628 35.7501 74.567V89L32.5001 88.921C30.7121 88.878 29.7611 88.632 30.3851 88.376C31.1711 88.053 31.2501 86.774 30.6421 84.205C30.1601 82.167 30.0411 76.887 30.3771 72.472C30.8891 65.761 30.7211 64.221 29.3551 63.087C28.0231 61.982 27.8401 60.581 28.3601 55.498L28.9991 49.264L25.9271 48.813C24.2381 48.565 23.0831 48.73 23.3621 49.181C23.6401 49.631 24.8001 50 25.9381 50C27.8711 50 27.9641 50.387 27.3461 55.85C26.8351 60.371 27.0171 61.976 28.1451 62.913C29.2901 63.863 29.5681 66.581 29.4281 75.49C29.3301 81.741 28.9151 86.257 28.5051 85.526C26.3001 81.589 20.5781 58.475 20.0821 51.5C19.5381 43.849 19.5891 43.587 21.2371 45.5C22.8691 47.393 22.8691 47.346 21.2391 44.608C19.1421 41.085 19.7091 35.29 22.8701 27.942L25.0201 22.944L38.1351 23.222L51.2501 23.5L50.9931 25.858ZM33.9481 26.633C29.9931 28.63 27.7501 32.581 27.7501 37.55C27.7501 42.988 33.0241 48 38.7461 48C44.1781 48 48.3591 45.038 49.8231 40.152C52.6441 30.735 42.6601 22.233 33.9481 26.633ZM56.2111 31.25C57.0721 33.313 57.5691 35 57.3141 35C56.0851 35 51.6671 27.944 52.2771 26.956C53.1971 25.469 54.3011 26.674 56.2111 31.25ZM42.9211 32.655C46.6441 36.024 44.0641 43 39.0951 43C37.8051 43 35.8501 42.1 34.7501 41C29.2801 35.53 37.1811 27.46 42.9211 32.655ZM17.4391 72.774C21.5401 86.502 21.7581 85.159 14.5991 90.297C9.27808 94.116 8.11008 94.603 7.38308 93.307C5.91008 90.679 7.18808 74.883 9.18808 71C11.3481 66.806 13.8701 63.787 14.6011 64.518C14.8931 64.809 16.1701 68.525 17.4391 72.774ZM67.4901 67.959C70.5501 72.476 71.7381 77.282 71.7441 85.168C71.7541 96.512 72.6751 96.499 56.8971 85.376C56.7021 85.239 57.6751 81.611 59.0591 77.313C60.4421 73.016 61.8551 68.231 62.1991 66.679C62.9651 63.221 64.5361 63.601 67.4901 67.959Z" fill="white"/>
</svg>
