<svg width="13" height="14" viewBox="0 0 13 14" fill="none" xmlns="http://www.w3.org/2000/svg">
<path fill-rule="evenodd" clip-rule="evenodd" d="M5.61726 0.329871C4.83669 0.943867 4.87876 2.02328 5.70891 2.68386C6.31253 3.16413 5.91073 3.33274 4.16295 3.33274C3.24332 3.33274 2.46776 3.25896 2.41016 3.1658C2.23138 2.8765 1.38988 2.98451 1.0702 3.33775C0.827482 3.60585 0.796599 3.77162 0.922132 4.1307C1.10225 4.64604 1.80403 4.82566 2.39731 4.50815C2.60681 4.39613 3.38371 4.34021 4.33155 4.36926L5.91574 4.41783L5.96732 6.08721C6.02558 7.97243 5.74113 11.393 5.48656 11.8688C5.35835 12.1081 5.20995 12.1574 4.86573 12.0746C3.59872 11.7698 1.43745 10.2446 1.53143 9.72177C1.55931 9.56618 1.28705 9.36185 0.787752 9.16386L0 8.85136L0.0893086 9.38906C0.272433 10.4922 0.337036 10.6893 0.485271 10.5977C0.568737 10.5461 0.988905 10.8458 1.41892 11.2638C1.84894 11.6816 2.8113 12.3287 3.55749 12.7014C4.30367 13.0742 5.17706 13.5226 5.49841 13.6977C6.27831 14.1229 6.99896 14.0997 7.69523 13.6271C8.0109 13.4129 8.83237 12.9667 9.5208 12.6357C10.2091 12.3045 11.1372 11.6938 11.5832 11.2785C12.0293 10.8631 12.4555 10.5611 12.5304 10.6074C12.6638 10.6898 12.7299 10.478 12.9107 9.38906L13 8.85136L12.2122 9.16386C11.716 9.36068 11.4407 9.56652 11.4682 9.72027C11.5958 10.4309 8.34961 12.4439 7.71743 12.046C7.40243 11.8477 7.16472 9.83312 7.12266 7.00536L7.08426 4.41783L8.73889 4.36976C9.7263 4.34104 10.4633 4.39146 10.5668 4.49496C10.8841 4.81231 11.8133 4.69946 12.0171 4.31884C12.4698 3.4728 11.6554 2.72592 10.7366 3.1446C10.1937 3.392 7.22532 3.39417 7.07291 3.14727C7.00981 3.04528 7.15805 2.80121 7.4021 2.60473C7.68054 2.38086 7.88286 2.01711 7.9448 1.62931C8.0301 1.09495 7.97451 0.942198 7.53498 0.502485C6.93102 -0.101495 6.24426 -0.163429 5.61726 0.329871ZM6.90548 1.09094C7.20462 1.39026 7.20195 1.37974 7.0664 1.73315C6.92467 2.10275 6.21338 2.06368 6.00538 1.67489C5.87517 1.43166 5.89721 1.28843 6.09486 1.09061C6.42405 0.761572 6.57595 0.761571 6.90548 1.09094Z" fill="white"/>
</svg>
